<svg version="1.1"
	 xmlns="http://www.w3.org/2000/svg" xmlns:xlink="http://www.w3.org/1999/xlink" xmlns:a="http://ns.adobe.com/AdobeSVGViewerExtensions/3.0/"
	 x="0px" y="0px" width="56.1px" height="47.4px" viewBox="0 0 56.1 47.4" enable-background="new 0 0 56.1 47.4"
	 xml:space="preserve">
<defs>
</defs>
<g>
	<path fill="#FFFFFF" d="M55.9,27.4c-0.2,1.4-0.6,2.7-1.3,3.8c-3.3,5.5-11.3,8.3-20.8,11.5c-12,4.1-22.5,7.7-28.7,1
		c-1.4-1.5-2.7-3.6-3.6-6.4c-5-14.7,2.9-30.7,17.6-35.8c14.7-5,30.7,2.8,35.8,17.6C56,22.4,56.3,25.1,55.9,27.4z"/>
	<path fill="#009FE3" d="M23.9,22.3c-2.2,0.2-3.2,4.9-3,7.3c0.2,2,1,1.9,1.5,1.9c0.7-0.1,1.8-0.9,1.9-2.4l0.7-5.9
		C25,22.8,24.7,22.2,23.9,22.3z"/>
	<path fill="#009FE3" d="M48,21.2c-0.4,1.7-1,3.3-1.7,5c0.3,0.1,0.6,0.4,0.7,0.8c0.1,0.6-0.4,1.3-1,1.4c-0.2,0-0.4,0-0.6-0.2
		c0,0.1,0,0.1-0.1,0.2c0.2,1,0.6,1.5,1.7,1.4c1.1-0.1,2.2-0.8,2-2.6C48.9,26,48.6,25.2,48,21.2z"/>
	<path fill="#009FE3" d="M54.9,19.1C49.8,4.3,33.8-3.5,19.1,1.5C4.4,6.6-3.5,22.6,1.5,37.3c0.9,2.8,2.2,4.9,3.6,6.4
		c6.2,6.7,16.7,3.1,28.7-1c9.5-3.2,17.5-6,20.8-11.5c0.7-1.1,1.1-2.4,1.3-3.8C56.3,25.1,56,22.4,54.9,19.1z M40.8,13.8
		c1.2-0.1,2.2,0.8,2.3,1.9c0.1,1.1-0.8,2.1-1.9,2.2C40.1,18,39.1,17.2,39,16C38.9,14.9,39.7,13.9,40.8,13.8z M14.9,33.2
		c-0.5,3.8-1.8,7-5.4,7.7H9.3c-2.8,0.3-4.1-1.3-4.2-2.9c-0.1-1.2,0.5-2.2,1.2-2.6s1.3-0.1,1.3-0.1s0.6,0.3,0.7,0.9
		c0.1,0.6-0.4,1.3-1.1,1.4c-0.3,0-0.6,0-0.7-0.3v0.1c0.1,1.4,1.2,1.7,2,1.6c1.2-0.1,1.9-0.7,2.2-3.5l2.2-16.7l3.9-1L14.9,33.2z
		 M48,31.8c-1.8,0.2-3-0.6-3.6-1.6c-1.2,1.7-2.7,2.1-3.7,2.2c-1.3,0.1-2.5-0.5-2.9-2.1c-1.2,2.1-2.9,2.6-4,2.7
		c-1.3,0.1-2.5-0.5-2.9-2c-1.2,2.1-2.7,2.5-3.7,2.6c-1.4,0.1-2.4-0.6-2.7-2.1c-0.7,1.2-1.8,2.5-3.6,2.7c-1.7,0.1-3.5-0.8-3.8-3.8
		c-0.3-3.5,1.4-9.2,5.8-9.5c1.5-0.1,2.1,0.4,2.2,1.1v0.2l0.1-0.8l3.8-0.9l-1.1,8.9c0,0.3-0.1,0.6,0,0.8c0.1,0.7,0.4,1.1,1.1,1
		c1-0.1,1.6-1.3,1.9-2.6l1.6-13.1l3.8-0.8l-1.8,14.1c0,0.3-0.1,0.6,0,0.8c0.1,0.7,0.4,0.9,1.1,0.9c1-0.1,1.8-1.1,2.1-2.5l1-7.8
		l3.8-0.9l-1.1,8.9c0,0.3-0.1,0.6,0,0.8c0.1,0.7,0.4,0.9,1.1,0.9c0.5,0,1-0.4,1.4-0.9c0-0.1,0-0.2,0-0.3c0-1.1,0.6-1.9,1.2-2.2
		c1.2-2.7,1.7-4.4,2.3-7l4.1-1c0.9,6.6,1.1,6.8,1.3,8.5C53,30.3,50.1,31.6,48,31.8z"/>
</g>
</svg>
